<?xml version="1.0" encoding="UTF-8"?>
<svg id="Layer_1" data-name="Layer 1" xmlns="http://www.w3.org/2000/svg" xmlns:xlink="http://www.w3.org/1999/xlink" version="1.1" viewBox="0 0 165 165">
  <defs>
    <style>
      .cls-1 {
        stroke: url(#linear-gradient-2);
      }

      .cls-1, .cls-2 {
        fill: none;
        stroke-miterlimit: 10;
      }

      .cls-3 {
        fill: #000;
      }

      .cls-3, .cls-4, .cls-5, .cls-6, .cls-7 {
        stroke-width: 0px;
      }

      .cls-4 {
        fill: #f9a51f;
      }

      .cls-2 {
        stroke: url(#linear-gradient);
      }

      .cls-5 {
        display: none;
        fill: #55e6a5;
      }

      .cls-6 {
        fill: url(#linear-gradient-3);
      }

      .cls-7 {
        fill: #fff;
      }
    </style>
    <linearGradient id="linear-gradient" x1="-.1" y1="82.5" x2="165.1" y2="82.5" gradientUnits="userSpaceOnUse">
      <stop offset="0" stop-color="#faaf40"/>
      <stop offset="1" stop-color="#f6921e"/>
    </linearGradient>
    <linearGradient id="linear-gradient-2" x1="31.3" y1="82.5" x2="133.7" y2="82.5" xlink:href="#linear-gradient"/>
    <linearGradient id="linear-gradient-3" x1="67" y1="109.9" x2="67" y2="60.6" xlink:href="#linear-gradient"/>
  </defs>
  <circle class="cls-2" cx="82.5" cy="82.5" r="82.1"/>
  <circle class="cls-1" cx="82.5" cy="82.5" r="50.7"/>
  <g>
    <path class="cls-3" d="M68.2,142.2l1.1,9.1-2.2-.6-.4-4.2-2.9,3.4h-.4c0-.1-.6-4.6-.6-4.6l-2.6,3.3-2.2-.6,5.8-7.1h.1s.8,5.2.8,5.2l3.4-4h.1Z"/>
    <path class="cls-3" d="M55.9,140l-2.8-1.4.8-1.7,4.6,2.2-3.6,7.4-4.6-2.2.8-1.7,2.8,1.3.6-1.2-2.5-1.2.8-1.6,2.5,1.2.6-1.3Z"/>
    <path class="cls-3" d="M46.2,132.1l-5.2,6.4-2.3-1.9c-1.3-1.1-1.5-2.8-.5-4,1-1.2,2.7-1.4,4-.3l.8.6,1.7-2.1,1.6,1.3ZM41.7,134.4l-.8-.6c-.4-.3-.9-.3-1.2,0-.3.4-.3.9.2,1.2l.8.6,1.1-1.3Z"/>
    <path class="cls-3" d="M33.8,119.9l1.5,1.8-.9,4,2.5-2.1,1.3,1.5-6.3,5.4-1.9-2.2c-1.1-1.3-1.2-2.9.1-4,.8-.7,1.8-.8,2.7-.3l.9-4.1ZM32.9,126c-.4-.5-.9-.5-1.3-.2-.4.4-.4.9,0,1.4l.5.6,1.4-1.2-.5-.6Z"/>
    <path class="cls-3" d="M28,119c-2.1,1.2-4.7.5-5.9-1.6-1.2-2.1-.5-4.7,1.6-5.9,2.1-1.2,4.7-.5,5.9,1.6,1.2,2.2.5,4.7-1.6,5.9ZM24.7,113.2c-1.2.7-1.5,2-.9,3.2.7,1.2,2,1.5,3.2.9,1.2-.7,1.5-2,.9-3.2-.7-1.2-2-1.5-3.2-.9Z"/>
    <path class="cls-3" d="M24.7,102.3l-6.7,6.5-.7-2.2,3.2-2.9-4.3-.4-.7-2.2,9.3,1.1h0Z"/>
    <path class="cls-3" d="M22.4,94.1l-8.1,1.4-.3-2,8.1-1.4.3,2Z"/>
    <path class="cls-3" d="M21.4,86.9h-8.3c0,.1,0-2.9,0-2.9,0-2.3,1.8-4,4.1-4,2.3,0,4.2,1.6,4.2,3.9v3ZM19.4,84.9v-.9c0-1.2-1-2-2.2-1.9-1.3,0-2.2.9-2.2,2v.9s4.4,0,4.4,0Z"/>
    <path class="cls-3" d="M20.2,72.9l.5-3.1,1.8.3-.8,5.1-8.2-1.3.8-5,1.8.3-.5,3,1.3.2.4-2.7,1.8.3-.4,2.7,1.4.2Z"/>
    <path class="cls-3" d="M22.1,57.6c-2.2-1-3.1-3.5-2.1-5.7.3-.6.6-1.1,1.1-1.4l2.1,1c-.5.2-1.1.6-1.4,1.3-.6,1.2,0,2.5,1.1,3.1s2.5.1,3.1-1.1c.3-.7.3-1.4.1-1.9l2.1,1c0,.6-.1,1.2-.4,1.7-1.1,2.3-3.5,3.1-5.7,2.1Z"/>
    <path class="cls-3" d="M34.8,44l-1.4,1.9h-4.1c0,.1,2.7,2,2.7,2l-1.2,1.6-6.7-4.8,1.6-2.3c1-1.4,2.6-1.8,3.9-.9.9.6,1.2,1.6,1,2.5h4.2ZM28.7,44.6c.3-.5.3-1-.1-1.3-.4-.3-1-.2-1.3.3l-.5.6,1.5,1,.5-.6Z"/>
    <path class="cls-3" d="M37.9,37.9l2.2-2.2,1.3,1.3-3.7,3.6-5.8-5.9,3.6-3.6,1.3,1.3-2.2,2.2,1,1,2-2,1.3,1.3-2,2,1,1Z"/>
    <path class="cls-3" d="M44.5,34.3l-1.5-9.2h.1c0,0,8.1,4.6,8.1,4.6l-1.8,1.3-.8-.5-2.4,1.7.2,1-1.8,1.3ZM45.8,30.4l1.4-1-1.8-1.2.5,2.1Z"/>
    <path class="cls-3" d="M55.6,18.3l.8,1.8-1.7.8,2.7,5.7-1.8.9-2.7-5.7-1.7.8-.8-1.8,5.2-2.5Z"/>
    <path class="cls-3" d="M63.6,24.1l-2.5-7.9,1.9-.6,2.5,7.9-1.9.6Z"/>
    <path class="cls-3" d="M73.8,21.9l-5.2-7.8,2.3-.3,2.3,3.7,1.2-4.2,2.3-.3-2.7,8.9h-.1Z"/>
    <path class="cls-3" d="M84.3,19.2h3.1c0,.1,0,2,0,2l-5.2-.2.3-8.3,5.1.2v1.8c0,0-3.2-.1-3.2-.1v1.4c0,0,2.7.1,2.7.1v1.8c0,0-2.9-.1-2.9-.1v1.4Z"/>
    <path class="cls-3" d="M98.7,23l2.5-7.9,2.9.9c2.2.7,3.2,3,2.5,5.2s-2.8,3.4-5.1,2.7l-2.9-.9ZM101.3,21.8l.9.3c1.1.4,2.2-.3,2.6-1.5.4-1.2-.1-2.3-1.2-2.7l-.9-.3-1.3,4.2Z"/>
    <path class="cls-3" d="M109.8,27.2l3.7-7.4,1.8.9-3.7,7.4-1.8-.9Z"/>
    <path class="cls-3" d="M122.1,29.3l3.3,2.4-.4.5c-1.5,2.1-3.9,2.4-5.8,1-2.1-1.5-2.4-4.1-1-6,1.6-2.1,4.1-2.3,6-1,1.1.8,1.7,1.8,1.9,3l-1.9.5c0-.7-.4-1.4-1.1-1.9-1.1-.8-2.4-.6-3.3.5-.8,1.2-.7,2.5.5,3.4.8.6,1.7.7,2.3.2l-1.6-1.2,1-1.4Z"/>
    <path class="cls-3" d="M126.1,38.8l5.9-5.8,1.4,1.4-5.9,5.8-1.4-1.4Z"/>
    <path class="cls-3" d="M140.8,43.4l-1.6,1.2-1.1-1.5-5.1,3.8-1.2-1.6,5.1-3.8-1.1-1.5,1.6-1.2,3.4,4.6Z"/>
    <path class="cls-3" d="M135.8,50.9l9.3-.3h0c0,.1-5.7,7.5-5.7,7.5l-1-2,.6-.8-1.4-2.6h-1c0,0-1-1.9-1-1.9ZM139.5,52.6l.8,1.5,1.4-1.7-2.2.2Z"/>
    <path class="cls-3" d="M141.1,62.3l7.9-2.4.6,1.9-6,1.9.8,2.7-1.9.6-1.4-4.6Z"/>
    <path class="cls-3" d="M146.6,77.3l.4,1.7c-.5,0-.9.5-.8,1.1,0,.6.3,1,.7.9.5,0,.7-.5.9-1.2l.2-.6c.4-1.1,1.1-1.9,2.4-2,1.4,0,2.5,1.1,2.5,2.6,0,1.5-.9,2.6-2.2,2.8l-.3-1.7c.4,0,.7-.3.7-.8,0-.4-.3-.7-.7-.7-.4,0-.6.4-.8,1l-.3.7c-.4,1.2-1.2,2-2.4,2-1.4,0-2.5-1.2-2.5-2.8,0-1.6.9-2.9,2.3-3Z"/>
    <path class="cls-3" d="M148.5,88.2c2.4.4,4,2.5,3.6,4.9-.4,2.4-2.5,4-4.9,3.6-2.4-.4-4-2.5-3.6-4.9.4-2.5,2.5-4,4.9-3.7ZM147.5,94.8c1.3.2,2.5-.6,2.7-2,.2-1.3-.6-2.5-2-2.7-1.3-.2-2.5.6-2.7,2-.2,1.3.6,2.5,2,2.7Z"/>
    <path class="cls-3" d="M141.8,100.8l7.8,2.7-.7,1.9-6-2.1-.9,2.7-1.8-.6,1.6-4.6Z"/>
    <path class="cls-3" d="M140.9,110.7l4.8,2.6-1,1.8-4.6-2.5c-.7-.4-1.3-.2-1.7.5-.4.7-.2,1.3.4,1.7l4.6,2.5-1,1.8-4.8-2.6c-1.6-.9-1.9-2.6-1-4.3.9-1.7,2.6-2.4,4.2-1.5Z"/>
    <path class="cls-3" d="M135.6,128.5l-1.5-1.2,1.2-1.5-4.9-4,1.3-1.6,4.9,4,1.2-1.5,1.5,1.2-3.6,4.5Z"/>
    <path class="cls-3" d="M125.8,126.7l5.7,6-1.5,1.4-5.7-6,1.5-1.4Z"/>
    <path class="cls-3" d="M123,134.8c1.4,2,.8,4.6-1.2,6-2,1.4-4.7.9-6-1.2-1.3-2-.8-4.6,1.2-6,2.1-1.4,4.7-.9,6,1.2ZM117.5,138.5c.7,1.1,2.1,1.4,3.2.6,1.1-.7,1.4-2.1.7-3.2-.7-1.1-2.1-1.4-3.3-.6-1.1.8-1.4,2.1-.6,3.2Z"/>
    <path class="cls-3" d="M109.3,138.3l3.1,7.8h-.1s-6.6-2.2-6.6-2.2l1.6,4-1.9.7-3.1-7.8h0s6.6,2.2,6.6,2.2l-1.6-4,1.9-.8Z"/>
    <path class="cls-3" d="M98.3,144.6l-1.7.6c-.2-.5-.6-.8-1.2-.6-.6.1-.9.5-.8.8,0,.5.6.6,1.3.7h.6c1.2.3,2.1.9,2.3,2.2.3,1.3-.6,2.6-2.1,2.9-1.4.3-2.7-.5-3.1-1.8l1.6-.6c.1.4.4.7.9.6.4,0,.7-.4.6-.8s-.5-.5-1.1-.7h-.7c-1.2-.4-2.2-1-2.4-2.2-.3-1.3.8-2.6,2.4-3,1.6-.3,3,.4,3.4,1.8Z"/>
  </g>
  <path class="cls-5" d="M82,66.8c0-.2.2-.3.4-.5.2-.1.4-.2.6-.2s.4,0,.6.2c.2.1.3.3.4.5l3.8,9.2c0,.2.2.3.3.4.2.1.3.2.5.2l9.9.8c.9,0,1.3,1.2.6,1.8l-7.6,6.5c-.1.1-.2.3-.3.5,0,.2,0,.4,0,.5l2.3,9.7c0,.2,0,.4,0,.6,0,.2-.2.4-.4.5-.2.1-.4.2-.6.2-.2,0-.4,0-.6-.1l-8.5-5.2c-.2,0-.3-.1-.5-.1s-.4,0-.5.1l-8.5,5.2c-.2.1-.4.2-.6.1-.2,0-.4,0-.6-.2-.2-.1-.3-.3-.4-.5,0-.2,0-.4,0-.6l2.3-9.7c0-.2,0-.4,0-.5,0-.2-.2-.3-.3-.5l-7.6-6.5c-.2-.1-.3-.3-.3-.5,0-.2,0-.4,0-.6,0-.2.2-.4.3-.5.2-.1.3-.2.5-.2l9.9-.8c.2,0,.4,0,.5-.2.2-.1.3-.3.3-.4l3.8-9.2Z"/>
  <g>
    <path class="cls-7" d="M108.6,69.6c.2,0,.3-.3.1-.5-.3-.2-.7-.4-1.2-.7-1.7-.8-3.4-1.2-5.6-1.6-3.6-.5-6.3-.5-6.9-.5-2.8,0-7.8,0-14.1,1.8-2.3.6-4.3,1.2-6.8,2.5-2.7,1.4-5.8,3-7.4,6.1-1.5,3-1.1,6-.8,7.9,1.6,10.4,11.8,21.7,15,25.1s.5,0,.4-.2c-.4-2.8-.6-6.3-.1-10.4.8-6.8,3.1-12.1,4.9-15.3,1.1-2.2,3.5-6,7.8-9.2,5.8-4.3,11.9-5,14.8-5.2Z"/>
    <path class="cls-6" d="M82.7,61.1c.2-.1,0-.4-.2-.4-.4,0-.9,0-1.4,0-1.9.2-3.5.8-5.6,1.7-3.3,1.5-5.6,3-6.1,3.3-2.3,1.5-6.5,4.3-10.9,9.1-1.6,1.7-3,3.3-4.4,5.8-1.5,2.6-3.3,5.6-3,9.2.3,3.3,2.3,5.6,3.6,7.1,7,7.8,21.7,11.9,26.2,13s.4-.2.2-.4c-1.8-2.1-3.9-5-5.7-8.7-3-6.2-3.9-11.9-4.1-15.5-.2-2.5-.3-6.9,1.6-11.9,2.6-6.7,7.3-10.6,9.7-12.3Z"/>
    <path class="cls-4" d="M112.2,77.4h-13.8c-1.2,0-2.4,1-2.7,2.1l-.8,3.3h-11.3c-1.2,0-2.4,1-2.7,2.1l-1.2,4.6c-.3,1.2.4,2.1,1.6,2.1h13.8c1.2,0,2.4-1,2.7-2.1l.8-3.3h11.3c1.2,0,2.4-1,2.7-2.1l1.2-4.6c.3-1.2-.4-2.1-1.6-2.1Z"/>
    <path class="cls-7" d="M109.8,96.9h-10c-.9,0-1.4-.7-1.2-1.5l.8-3.4c.2-.9,1.1-1.5,1.9-1.5h10c.9,0,1.4.7,1.2,1.5l-.8,3.4c-.2.9-1.1,1.5-1.9,1.5Z"/>
    <path class="cls-7" d="M94,101.7h-10c-.9,0-1.4-.7-1.2-1.5l.8-3.4c.2-.9,1.1-1.5,1.9-1.5h10c.9,0,1.4.7,1.2,1.5l-.8,3.4c-.2.9-1.1,1.5-1.9,1.5Z"/>
  </g>
</svg>